<svg height="48" width="48" xmlns="http://www.w3.org/2000/svg" xmlns:xlink="http://www.w3.org/1999/xlink"><radialGradient id="a" cx="605.71429" cy="486.64789" gradientTransform="matrix(-2.774389 0 0 1.969706 112.7623 -872.8854)" gradientUnits="userSpaceOnUse" r="117.14286" xlink:href="#b"/><linearGradient id="b"><stop offset="0"/><stop offset="1" stop-opacity="0"/></linearGradient><radialGradient id="c" cx="605.71429" cy="486.64789" gradientTransform="matrix(2.774389 0 0 1.969706 -1891.633 -872.8854)" gradientUnits="userSpaceOnUse" r="117.14286" xlink:href="#b"/><linearGradient id="d" gradientTransform="matrix(2.774389 0 0 1.969706 -1892.179 -872.8854)" gradientUnits="userSpaceOnUse" x1="302.85715" x2="302.85715" y1="366.64789" y2="609.50507"><stop offset="0" stop-opacity="0"/><stop offset=".5"/><stop offset="1" stop-opacity="0"/></linearGradient><radialGradient id="e" cx="24.44568940002" cy="35.87816008386" gradientUnits="userSpaceOnUse" r="40.9604599858"><stop offset="0" stop-color="#fff"/><stop offset="1" stop-color="#dcdcdc"/></radialGradient><radialGradient id="f" cx="24.445681" cy="46.957848" gradientTransform="matrix(2.670835 0 0 2.653312 -40.84471 -77.78951)" gradientUnits="userSpaceOnUse" r="16.554319"><stop offset="0" stop-color="#c00"/><stop offset="1" stop-color="#c00" stop-opacity="0"/></radialGradient><g transform="matrix(.02304988 0 0 .02086758 45.00013 40.24675)"><path d="m-1559.2523-150.69685h1339.6335v478.35718h-1339.6335z" fill="url(#d)" opacity=".402062"/><path d="m-219.61876-150.68038v478.33079c142.874166.90045 345.40022-107.16966 345.40014-239.196175 0-132.026537-159.436816-239.134595-345.40014-239.134615z" fill="url(#c)" opacity=".402062"/><path d="m-1559.2523-150.68038v478.33079c-142.8742.90045-345.4002-107.16966-345.4002-239.196175 0-132.026537 159.4368-239.134595 345.4002-239.134615z" fill="url(#a)" opacity=".402062"/></g><rect fill="url(#e)" fill-rule="evenodd" height="40.061924" rx="5.454824" stroke="#9b9b9b" stroke-linejoin="bevel" stroke-miterlimit="10" width="40.061924" x="4.414728" y="3.523345"/><rect fill="none" height="37.696587" rx="4.242639" stroke="#fff" stroke-linejoin="bevel" stroke-miterlimit="10" width="37.696587" x="5.597389" y="4.706007"/><rect fill="url(#f)" fill-rule="evenodd" height="32.891403" rx="2.744035" width="33.108639" x="7.891361" y="7.108597"/><g style="fill:#204a87;stroke:#eeeeec;stroke-width:6.967213;stroke-linecap:round;stroke-linejoin:round;stroke-miterlimit:10" transform="matrix(.717647 0 0 .717647 6.882353 6.6)"><path d="m16.25 15.25 16.25 16.25" display="block"/><path d="m32.5 15.25-16.25 16.25" display="block"/></g></svg>