<svg height="48" width="48" xmlns="http://www.w3.org/2000/svg" xmlns:xlink="http://www.w3.org/1999/xlink"><radialGradient id="a" cx="605.71429" cy="486.64789" gradientTransform="matrix(-2.774389 0 0 1.969706 112.7623 -872.8854)" gradientUnits="userSpaceOnUse" r="117.14286" xlink:href="#b"/><linearGradient id="b"><stop offset="0"/><stop offset="1" stop-opacity="0"/></linearGradient><radialGradient id="c" cx="605.71429" cy="486.64789" gradientTransform="matrix(2.774389 0 0 1.969706 -1891.633 -872.8854)" gradientUnits="userSpaceOnUse" r="117.14286" xlink:href="#b"/><linearGradient id="d" gradientTransform="matrix(2.774389 0 0 1.969706 -1892.179 -872.8854)" gradientUnits="userSpaceOnUse" x1="302.85715" x2="302.85715" y1="366.64789" y2="609.50507"><stop offset="0" stop-opacity="0"/><stop offset=".5"/><stop offset="1" stop-opacity="0"/></linearGradient><linearGradient gradientTransform="scale(1.244363 .803624)" gradientUnits="userSpaceOnUse" x1="81.307533" x2="136.9856" xlink:href="#f" y1="67.364906" y2="137.97153"/><linearGradient id="e" gradientUnits="userSpaceOnUse" x1="78.245598" x2="192.3857" y1="72.608902" y2="72.608902"><stop offset="0" stop-color="#e4e9ea"/><stop offset="1" stop-color="#85898a"/></linearGradient><linearGradient id="f"><stop offset="0" stop-color="#fff"/><stop offset="1" stop-color="#b0b0b0"/></linearGradient><linearGradient id="g" gradientTransform="matrix(1.464893 0 0 .475906 30.56501 -34.34268)" gradientUnits="userSpaceOnUse" x1="-4.63752" x2="-4.523921" y1="104.38752" y2="110.61378"><stop offset="0" stop-color="#eff3f4"/><stop offset="1" stop-color="#939596"/></linearGradient><linearGradient id="h" gradientTransform="matrix(3.495016 0 0 .344323 -2.972087 -.034081)" gradientUnits="userSpaceOnUse" x1="7.373861" x2="7.529112" xlink:href="#b" y1="27.376621" y2="69.460503"/><linearGradient id="i" gradientTransform="matrix(.772488 0 0 1.55784 -2.79531 -.166664)" gradientUnits="userSpaceOnUse" x1="55.208272" x2="60.685901" y1="6.889798" y2="6.889798"><stop offset="0" stop-color="#babdb6"/><stop offset="1" stop-color="#f1f5ec"/></linearGradient><linearGradient id="j" gradientTransform="matrix(2.374946 0 0 .506711 -2.79531 -.166664)" gradientUnits="userSpaceOnUse" x1="2.932561" x2="19.737664" y1="21.169637" y2="21.169637"><stop offset="0" stop-color="#575955"/><stop offset="1" stop-color="#7c7e79"/></linearGradient><radialGradient id="k" cx="16.280994" cy="20.45278" gradientTransform="matrix(2.202254 0 0 .574568 -13.83631 .652472)" gradientUnits="userSpaceOnUse" r="5.643493" xlink:href="#e"/><linearGradient id="l" gradientTransform="matrix(1.399756 0 0 .903977 -3.99312 .7519)" gradientUnits="userSpaceOnUse" x1="14.248631" x2="18.086929" y1="11.165159" y2="14.74888"><stop offset="0" stop-color="#fff"/><stop offset=".5" stop-color="#bebebe"/><stop offset="1" stop-color="#b0b0b0"/></linearGradient><linearGradient id="m" gradientTransform="scale(1.244363 .803624)" gradientUnits="userSpaceOnUse" x1="128.35213" x2="132.98843" xlink:href="#f" y1="116.66409" y2="122.61145"/><linearGradient id="n" gradientTransform="matrix(1.399756 0 0 .903977 -3.99312 .797381)" gradientUnits="userSpaceOnUse" x1="9.962619" x2="20.135639" xlink:href="#f" y1="8.725183" y2="14.744809"/><linearGradient id="o" gradientUnits="userSpaceOnUse" x1="23.18715642428" x2="41.49368879018" xlink:href="#e" y1="3.394097614" y2="12.13045831676"/><linearGradient id="p" gradientTransform="matrix(-1.449414 .286552 -.469381 .965804 -2.70059 .453616)" gradientUnits="userSpaceOnUse" x1="-32.400455" x2="-36.301399" y1="18.817307" y2="24.077389"><stop offset="0" stop-color="#696969"/><stop offset="1" stop-color="#fff"/></linearGradient><linearGradient id="q" gradientTransform="matrix(.82649 .763061 .763061 -.82649 -30.95946 -9.495656)" gradientUnits="userSpaceOnUse" x1="36.155384" x2="45.130928" xlink:href="#e" y1="13.131673" y2="20.664473"/><linearGradient id="r" gradientTransform="matrix(1.399756 0 0 .903977 -2.86035 .227876)" gradientUnits="userSpaceOnUse" x1="16.551964" x2="13.763388" xlink:href="#f" y1="14.035932" y2="9.36153"/><linearGradient id="s" gradientTransform="matrix(1.027326 -.134612 .528454 .53648 8.12216 4.8634)" gradientUnits="userSpaceOnUse" x1="9.962619" x2="20.135639" y1="8.725183" y2="14.744809"><stop offset="0" stop-color="#b0b0b0"/><stop offset="1" stop-color="#b0b0b0"/></linearGradient><radialGradient id="t" cx="39.14772" cy="8.930342" gradientTransform="matrix(.878817 0 0 1.025708 1.24328 2.850095)" gradientUnits="userSpaceOnUse" r="13.265761"><stop offset="0" stop-color="#f9feff"/><stop offset="1" stop-color="#afb4b6"/></radialGradient><linearGradient id="u" gradientTransform="scale(1.175635 .850604)" gradientUnits="userSpaceOnUse" x1="10.861447" x2="30.587307" y1="33.139202" y2="37.720802"><stop offset="0" stop-color="#b5c051"/><stop offset="1" stop-color="#858e3f"/></linearGradient><linearGradient id="v" gradientTransform="scale(1.175635 .850604)" gradientUnits="userSpaceOnUse" x1="19.347122" x2="19.672924" y1="23.114082" y2="52.625473"><stop offset="0" stop-color="#616c08"/><stop offset="1" stop-color="#495106"/></linearGradient><linearGradient id="w" gradientTransform="scale(1.175636 .850604)" gradientUnits="userSpaceOnUse" x1="17.573946" x2="25.31245" y1="25.335417" y2="48.805084"><stop offset="0" stop-color="#fff" stop-opacity=".103093"/><stop offset="1" stop-color="#fff" stop-opacity="0"/></linearGradient><linearGradient id="x" gradientTransform="scale(1.215669 .822592)" gradientUnits="userSpaceOnUse" x1="19.977491" x2="19.857769" y1="38.962704" y2="23.600779"><stop offset="0" stop-color="#fff"/><stop offset="1" stop-color="#fff" stop-opacity="0"/></linearGradient><g transform="matrix(.02262383 0 0 .02086758 44.25843 41.86962)"><path d="m-1559.2523-150.69685h1339.6335v478.35718h-1339.6335z" fill="url(#d)" opacity=".402062"/><path d="m-219.61876-150.68038v478.33079c142.874166.90045 345.40022-107.16966 345.40014-239.196175 0-132.026537-159.436816-239.134595-345.40014-239.134615z" fill="url(#c)" opacity=".402062"/><path d="m-1559.2523-150.68038v478.33079c-142.8742.90045-345.4002-107.16966-345.4002-239.196175 0-132.026537 159.4368-239.134595 345.4002-239.134615z" fill="url(#a)" opacity=".402062"/></g><path d="m3.836697 16.810238c-.044089-.035063 1.731963 25.223968 1.732469 25.231625.166614 2.522544 1.565267 3.444491 3.130763 3.448247.055941.000129 29.36948-.003247 29.994007-.005876 2.636366-.011095 3.282248-1.61654 3.455675-3.370659.01391-.034585 1.789053-25.268751 1.80296-25.303337-13.371957 0-26.743914 0-40.115874 0z" fill="url(#u)" fill-rule="evenodd" stroke="url(#v)" stroke-width="1.25"/><path d="m7.538492 4.7306315c-1.044325.0023688-1.918343.0263494-2.394414 1.0135736-.082745.1715883-2.604949 7.1356289-2.726209 7.4012089-1.038105 2.273602-.08076 5.137624 1.92431 5.118449.381315-.003529 39.510222.017758 40.116984 0 1.706821-.049078 1.925238-3.365584 1.190463-4.857527-.041627-.084522-3.451799-7.7570361-3.538774-7.8929342-.402274-.6069229-1.30313-.8729138-1.972297-.8480012-.131821.0050298-32.4696.0649362-32.600063.0652309z" fill="url(#g)" fill-rule="evenodd" stroke="#4d5506" stroke-width="1.25"/><path d="m7.72045 6.3900545c-.984926-.0127322-1.049062-.0508079-1.270773.6461917-.05118.160896-2.113195 6.4953608-2.194022 6.7411718-.274879.835953.113825 1.05657 1.067748 1.039577.337924-.00602 37.346756 0 37.884766 0 .763772 0 .990332-.2516.817805-.845397-.070106-.241285-2.940708-7.0046346-3.017795-7.1250827-.35654-.5379224-.294708-.5363559-.917459-.5439398-.116911-.0014245-32.254649.0889737-32.37027.087479z" display="block" fill="url(#j)" fill-rule="evenodd"/><path d="m7.191437 6.3869852c-.370875.0283134-.54926.1382019-.704493.6262163-.05118.1608959-2.11093 6.4860145-2.191758 6.7318255-.274879.835948.089771 1.060685 1.043695 1.043693.016523-.000292 1.953333.000242 2.136667 0l-.284111-8.4017348z" display="block" fill="#2e3436" fill-rule="evenodd"/><path d="m40.143457 6.2999077c.450756.0038519.583121-.0051808.871284.5395238.039406.0744914 2.874397 6.7931695 2.976187 7.0389795.34617.947104-.31313.927301-1.358836.954772-.198658-.000293-2.548854-.021989-2.779734-.022233l.291099-8.5110423z" display="block" fill="url(#i)" fill-rule="evenodd"/><path d="m43.188383 18.930946-35.9885237-.023157c27.1142967.630566 32.4414867 3.60944 35.7465157 3.457235l.242008-3.434078z" display="block" fill="url(#h)"/><g fill="#fff" fill-opacity=".488095" fill-rule="evenodd" transform="matrix(1.420021 0 0 1.420021 -67.25409 -7.48474)"><path d="m64.131147 25.325447 3.796986.289697 1.468264-3.574559-1.737263 1.220989s-.744908-1.737405-1.280311-1.877076c-.535402-.13967-2.819691-.093113-2.819691-.093113.726563.179688 1.291235 1.428127 1.299915 1.442289.22667.369856.861173 1.614383.861173 1.614383z"/><path d="m64.600893 22.852762-1.256872 2.397672-2.5839-1.629486s1.171698-2.211445 2.095054-2.211445c.931167 0 1.347281.802634 1.745718 1.443259z" fill-opacity=".309524"/><path d="m66.450976 28.545542-2.448028 2.925737 2.336128 3.01678.043208-1.900121s1.720763.162391 2.115702-.225149c.394937-.38754 2.037947-2.341519 2.037947-2.341519-.527497.530969-1.888664.373874-1.905274.374044-.433766.004403-2.150557-.03566-2.150557-.03566z"/><path d="m68.748409 30.061355-1.411063-2.310293 2.725645-1.379355s1.29507 2.141531.8206 2.933658c-.478482.798828-1.380866.743367-2.135182.75599z" fill-opacity=".309524"/><path d="m62.170193 28.37565-1.208497-3.182719-3.523941.24904 1.446617 1.053806s-.999037 1.410433-.860135 1.946036c.138902.535602.922543 2.754594.922543 2.754594-.197098-.722035.617989-1.823438.626127-1.837919.212539-.378153 1.10357-1.846158 1.10357-1.846158z"/><path d="m59.752772 29.661147 2.706208-.070667-.163985 3.050389s-2.502082.054309-2.951982-.752026c-.453705-.813157.044459-1.567613.409759-2.227696z" fill-opacity=".309524"/></g><path d="m41.62473 23.651808c-5.325371 2.33441-12.620527 4.669183-18.568512 4.71875-6.539985.0545-11.358669 3.160467-16.2399269 5.544194.1946769 2.880217.4093909 4.891194.674556 8.116767.1322673 1.608953.637924 1.570733 2.9403709 1.570733 9.11145 0 21.065416.012944 28.257583.012944 1.760538 0 1.559573-1.251731 1.654679-2.450444.460397-5.802858.874247-11.688495 1.28125-17.512944z" fill="url(#w)" fill-rule="evenodd"/><path d="m5.2098606 19.402822c-.0514063-.000132.8391931 12.6756 1.5467643 21.565562.1825359 2.28199.5535262 3.21077 1.9911541 3.21077 11.851299 0 28.69411.085145 29.267626.083069 2.774576-.010047 2.72265-1.026034 2.952439-3.184709.083652-.785834 1.536974-21.586304 1.523109-21.586304-9.929964 0-25.012293-.05677-37.2810924-.088388z" fill="none" stroke="url(#x)" stroke-opacity=".285714" stroke-width="1.14"/><path d="m14.68358.6545485c.161591-.1933439.117638-.18599338-.326365.1483478-1.776012 1.3373626-4.717457 4.0350585-4.717457 4.0350585s.250367.7924645-.474714 2.0175293c-.725082 1.2250655-2.907614-.5340511-2.907616-.5340519-.792796-.5341184-.291425 1.4210745.6824 3.5603458-1.03045.771308-1.780173 1.535958-1.780173 2.106538-.000001 1.349662-.091497 1.222574-.178017 1.483477-.543925.071331-1.158884.082992-2.076868 0 1.997979-.104094 3.231751-1.739474 3.723528-1.483477.050637.03148-1.262883 1.377547-1.201617 1.379634-.020626.035185-.563721.430208-.563721.430208l12.312862-.059338c-.00105.00994.00187.019696 0 .029668h11.600794c-.024477.035784-.40054-.207687-.40054-.207687l1.67633.207687h4.035059c.015421.003285-.016952.027063 0 .02967.000001.000001 2.79052.773913 2.492242 2.165877-.298279 1.391964-1.008765 1.809843-1.008765 1.809843.000002-.000002.314364 3.954225.712069 6.141596.397699 2.187369-.29419-3.675859 1.097773-4.272415 1.391965-.596555 5.055164.993336 6.645979-1.691165 1.590815-2.684499 1.109775-2.278225.712069-3.471336-.010531-.031595-.076793-.085081-.089009-.118678h.207687c.565974-.678466 1.206786-1.468586 2.195546-3.115302-2.435539 2.06272-2.330248 2.066711-2.788937 2.55158-.315067-.629325-.803683-1.367317-1.542816-1.898851l.148347-.02967s-.143759-.081974.652731-1.720834c.796488-1.6388567-5.200781-3.8501115-3.97572-2.6109193.666355.6740408-.933547 1.7456974-2.670259 2.4922423-.20778-.157739-2.10777-1.5408154-3.738362-2.1955469-.336493-.331642-.453904-.6016851-.860419-.9494255 4.191866-2.9435676-3.397509-1.9227805-8.188795-5.0141535 3.316902 2.176707 3.404332 4.4971733 2.254887 6.4679613-1.279657-.2958391-2.325957-.7627438-2.01753-1.3944687.596626-1.2220198-2.272873.928147-2.966955 2.551581-.125786.0077623-.223049-.1037889-.356034-.0593388-.009-.4688782.064228-.9156433-.059339-1.3944689-.752762-2.9169449-3.360641-2.3691452-5.577875-.1186783-.97793-1.383051-2.706122-2.318669-3.115303-3.2339807-.463542-1.0369132 1.948133-3.4550269 2.432903-4.0350585zm3.97572 8.9898735c.182609 0-.047082.440189-.148348.741738-.050387.007954-.09737.022998-.148347.02967-.027785-.436714.012636-.771408.296695-.771408zm17.742389.593391c-.275281.103016-.502586.281281-.771408.356034-.047533-.070568-.158012-.165876-.207686-.237357l.979094-.118677z" fill="none" stroke="#6d6d6d" stroke-linecap="round" stroke-linejoin="round" stroke-width="1.186782"/><path d="m22.58291 12.099667 14.463272-1.961767s-5.046958-3.868984-5.811459-2.3031275c-.7645 1.5658578-7.660771.6706926-6.896271-.8951638.764501-1.5658578-4.210296 2.4170967-2.931584 3.7152283 1.27871 1.298132 1.176042 1.44483 1.176042 1.44483z" fill="url(#s)" fill-rule="evenodd"/><path d="m14.985644 8.2500958c2.286796-2.585074 5.170149-3.281055 5.965557-.1988522.795407 3.0822044-1.193112 6.6615384-1.789667 5.2695744-.596557-1.391963-1.292537-3.678759-.49713-3.678759s-1.690241 3.579333-1.690241 3.579333l-1.988519-4.9712962z" fill="url(#r)" fill-rule="evenodd"/><path d="m6.263424 6.3236344s2.18035 1.7423732 2.905432.5173068c.725083-1.2250652.483502-1.9893937.483502-1.9893937s2.916978-2.7197462 4.69299-4.057109c1.776011-1.33736279-2.714644 2.5005901-2.096587 3.8831414.618055 1.3825513 4.400112 2.709204 3.747914 5.7607401-.652198 3.051535-.747677 2.4221-1.849233 3.028942-1.101555.606841-4.09142 1.500118-6.10307-1.304395-2.011653-2.8045154-2.865516-6.5699205-1.780948-5.8392326z" fill="url(#q)"/><path d="m42.868406 11.879622-14.435071 2.36545c-.148347-.415374 3.648689-4.8791287 4.873747-3.639938 1.225061 1.239192 7.473034-1.8141205 6.247973-3.0533116-1.22506-1.2391926 4.762141.943916 3.965653 2.5827736-.79649 1.638859-.652302 1.745026-.652302 1.745026z" fill="url(#p)" fill-rule="evenodd"/><path d="m19.262424 8.9416055.994259.8948335-7.35752 4.175889z" fill="#fff" fill-rule="evenodd"/><path d="m24.09019 1.8593282c9.483395 6.2234536-5.720044 15.1163568-8.225654 9.3505318 1.403897 1.034156 1.499275 2.104974 1.300637 3.163712h22.321757c-.812706-.241218-1.529719-.522002-2.81219-.562437 1.048583-.343698-.518288-3.609612-4.394046-6.9250176 4.191863-2.9435674-3.399219-1.9354165-8.190504-5.0267892zm22.954499 9.3856838c-2.976906 2.52122-2.513081 2.2449-3.40978 3.12856h1.230333c.565971-.678464 1.190687-1.481844 2.179447-3.12856z" fill="url(#o)"/><path d="m4.85578 14.424497 19.785758-.099427s-1.491387-6.7609612-4.275314-4.573592c-2.783926 2.187371-10.042019-.4971282-7.258091-2.6844992 2.783925-2.1873707-7.954075 2.7839262-7.954075 4.9712952 0 2.187372-.298278 2.386223-.298278 2.386223z" fill="url(#n)" fill-rule="evenodd"/><path d="m163.66854 88.723079c1.02949 3.486913-7.46354 9.355921-15.23954 8.652921 7.313-.381 4.751.926 6.551 1.863 2.157 1.341 13.88508-3.704652 8.68854-10.515921z" fill="url(#m)" fill-rule="evenodd" transform="matrix(.273209 0 0 .273209 -37.63912 -13.12876)"/><path d="m20.763929 10.203126c-1.49139.596556-2.783927 3.479908-5.269575 3.579335-2.485649.099426 5.269575.69598 6.064981 0 .795407-.695983-.795406-3.579335-.795406-3.579335z" fill="url(#l)" fill-rule="evenodd"/><path d="m19.869095 14.279591h10.340297s1.690241-2.982779-2.187371-2.783927c-3.877611.198851-2.585074 1.391964-4.573593 1.789667-1.988518.397705-3.579333.99426-3.579333.99426z" fill="url(#k)"/><path d="m34.087002 14.379015s2.783926.198852 2.485649 1.590816c-.298277 1.391963-.994261 1.789667-.994261 1.789667s.298278 3.977037.695984 6.164408c.397703 2.187369-.298279-3.678761 1.093684-4.275316 1.391964-.596556 5.070721.994259 6.661536-1.690241 1.590816-2.6845 1.093686-2.286797.695981-3.479908-.397703-1.19311-1.988518-3.87761-5.368998-3.181629-3.380482.695981-6.562112 2.883352-5.269575 3.082203z" fill="url(#t)"/><g fill-rule="evenodd"><path d="m4.881792 14.402387 14.804216-.045482s1.404641-.288741 2.109604-.470666c.725942-.370742 1.843228-.36274 2.625597-.766139 1.409446-.726724 1.14683-1.603406 4.377679-1.624386-3.923174-.41959-3.680845 1.385114-5.137858 1.733115-1.182466.282425-3.451985 1.082594-3.952281 1.014372s-14.826957.159186-14.826957.159186z" fill="#fff"/><path d="m13.182159 9.2629815s2.095988 1.6051805 5.253109 1.2507395c1.402598-.157465 2.251332-1.1142956 2.819851-1.1825171.568518-.0682224 1.023332.2728881 1.023332.2728881s-.523036-.2501476-1.000593-.1364441c-.477555.1137031-1.569198 1.3219851-3.183701 1.2734811-3.684089-.110681-4.911998-1.4781475-4.911998-1.4781475z" fill="#fff"/><path d="m24.110972 1.8899041s3.398686 2.1818721 3.063012 4.909212c-.335672 2.7273399-3.440643 4.7833339-3.440643 4.7833339s4.101329-2.5725191 3.818275-5.0350883c-.41959-3.6504398-3.440644-4.6574576-3.440644-4.6574576z" fill="#fff"/><path d="m32.334952 6.9249934c-.377632-.7133043-2.181873-2.1399129-3.734359-2.4755856 2.223831.5874272 4.195908 2.0559948 4.195908 2.0559948l-.461549.4195908z" fill-opacity=".178571"/><path d="m15.395649 7.834579s.949425 1.1571127.593391 2.521911c.860418.178017 1.216451.207687 1.216451.207687l.77141-.623059s0-1.8395131-2.581252-2.106539z" fill-opacity=".178571"/><path d="m12.716747 7.5165492s1.691164-.5933911 1.246122-.1780174c-.445043.4153737 2.106537 2.2845552 2.106537 2.2845552s0 .593391-.118677.741739c-.11868.148348-4.361424-1.0681034-3.233982-2.8482768z" fill-opacity=".071429"/></g></svg>