<svg height="48" width="48" xmlns="http://www.w3.org/2000/svg" xmlns:xlink="http://www.w3.org/1999/xlink"><radialGradient id="a" cx="605.71429" cy="486.64789" gradientTransform="matrix(-2.774389 0 0 1.969706 112.7623 -872.8854)" gradientUnits="userSpaceOnUse" r="117.14286" xlink:href="#b"/><linearGradient id="b"><stop offset="0"/><stop offset="1" stop-opacity="0"/></linearGradient><radialGradient id="c" cx="605.71429" cy="486.64789" gradientTransform="matrix(2.774389 0 0 1.969706 -1891.633 -872.8854)" gradientUnits="userSpaceOnUse" r="117.14286" xlink:href="#b"/><linearGradient id="d" gradientTransform="matrix(2.774389 0 0 1.969706 -1892.179 -872.8854)" gradientUnits="userSpaceOnUse" x1="302.85715" x2="302.85715" y1="366.64789" y2="609.50507"><stop offset="0" stop-opacity="0"/><stop offset=".5"/><stop offset="1" stop-opacity="0"/></linearGradient><radialGradient id="e" cx="55" cy="125" gradientUnits="userSpaceOnUse" r="14.375"><stop offset="0" stop-color="#fff"/><stop offset=".5" stop-color="#fff520" stop-opacity=".891089"/><stop offset="1" stop-color="#fff300" stop-opacity="0"/></radialGradient><radialGradient id="f" cx="8.824419" cy="3.756129" gradientTransform="matrix(.968273 0 0 1.032767 3.353553 .646447)" gradientUnits="userSpaceOnUse" r="37.751713"><stop offset="0" stop-color="#a3a3a3"/><stop offset="1" stop-color="#4c4c4c"/></radialGradient><radialGradient id="g" cx="33.966679" cy="35.736916" gradientTransform="scale(.960493 1.041132)" gradientUnits="userSpaceOnUse" r="86.70845"><stop offset="0" stop-color="#fafafa"/><stop offset="1" stop-color="#bbb"/></radialGradient><radialGradient id="h" cx="8.143557" cy="7.267897" gradientTransform="matrix(.968273 0 0 1.032767 3.353553 .646447)" gradientUnits="userSpaceOnUse" r="38.158695"><stop offset="0" stop-color="#fff"/><stop offset="1" stop-color="#f8f8f8"/></radialGradient><linearGradient id="i"><stop offset="0" stop-color="#f0f0f0"/><stop offset="1" stop-color="#9a9a9a"/></linearGradient><radialGradient id="j" cx="9.4125070463" cy="30.2965131852" gradientUnits="userSpaceOnUse" r="1.207318968" xlink:href="#i"/><radialGradient id="k" cx="9.4125070463" cy="18.8112483337" gradientUnits="userSpaceOnUse" r="1.207548671" xlink:href="#i"/><g transform="matrix(.02165152 0 0 .01485743 43.0076 42.68539)"><path d="m-1559.2523-150.69685h1339.6335v478.35718h-1339.6335z" fill="url(#d)" opacity=".402062"/><path d="m-219.61876-150.68038v478.33079c142.874166.90045 345.40022-107.16966 345.40014-239.196175 0-132.026537-159.436816-239.134595-345.40014-239.134615z" fill="url(#c)" opacity=".402062"/><path d="m-1559.2523-150.68038v478.33079c-142.8742.90045-345.4002-107.16966-345.4002-239.196175 0-132.026537 159.4368-239.134595 345.4002-239.134615z" fill="url(#a)" opacity=".402062"/></g><g><rect display="block" fill="url(#g)" height="40.920494" ry="1.149049" stroke="url(#f)" stroke-linecap="round" stroke-linejoin="round" width="34.875" x="6.603553" y="3.646446"/><rect display="block" fill="none" height="38.946384" rx=".149049" stroke="url(#h)" stroke-linecap="round" stroke-linejoin="round" width="32.775887" x="7.666054" y="4.583946"/><g transform="translate(.646447 -.037989)"><g fill="#fff" stroke="none" transform="matrix(.229703 0 0 .229703 4.967081 4.244972)"><path d="m23.428 113.07c0 1.973-1.6 3.572-3.573 3.572-1.974 0-3.573-1.6-3.573-3.572 0-1.974 1.6-3.573 3.573-3.573s3.573 1.6 3.573 3.573z"/><path d="m23.428 63.07c0 1.973-1.6 3.573-3.573 3.573-1.974 0-3.573-1.6-3.573-3.573 0-1.974 1.6-3.573 3.573-3.573s3.573 1.6 3.573 3.573z"/></g><path d="m9.9950109 29.952326c0 .453204-.3675248.820499-.8207288.820499-.4534338 0-.8207289-.367524-.8207289-.820499 0-.453434.3675248-.820729.8207289-.820729.453204 0 .8207288.367525.8207288.820729z" fill="url(#j)"/><path d="m9.9950109 18.467176c0 .453204-.3675248.820729-.8207288.820729-.4534338 0-.8207289-.367525-.8207289-.820729 0-.453434.3675248-.820729.8207289-.820729.453204 0 .8207288.367525.8207288.820729z" fill="url(#k)"/></g><g fill="none"><path d="m11.505723 5.4942766v37.9065924" stroke="#000" stroke-opacity=".017544" stroke-width=".988553"/><path d="m12.5 5.0205154v38.0177126" stroke="#fff" stroke-opacity=".204678"/></g></g><path d="m69.375 125a14.375 14.375 0 1 1 -28.75 0 14.375 14.375 0 1 1 28.75 0z" fill="url(#e)" transform="matrix(.783292 0 0 .783292 -6.340883 -86.65168)"/></svg>