<svg height="48" width="48" xmlns="http://www.w3.org/2000/svg" xmlns:xlink="http://www.w3.org/1999/xlink"><radialGradient id="a" cx="605.71429" cy="486.64789" gradientTransform="matrix(-2.774389 0 0 1.969706 112.7623 -872.8854)" gradientUnits="userSpaceOnUse" r="117.14286" xlink:href="#b"/><linearGradient id="b"><stop offset="0"/><stop offset="1" stop-opacity="0"/></linearGradient><radialGradient id="c" cx="605.71429" cy="486.64789" gradientTransform="matrix(2.774389 0 0 1.969706 -1891.633 -872.8854)" gradientUnits="userSpaceOnUse" r="117.14286" xlink:href="#b"/><linearGradient id="d" gradientTransform="matrix(2.774389 0 0 1.969706 -1892.179 -872.8854)" gradientUnits="userSpaceOnUse" x1="302.85715" x2="302.85715" y1="366.64789" y2="609.50507"><stop offset="0" stop-opacity="0"/><stop offset=".5"/><stop offset="1" stop-opacity="0"/></linearGradient><linearGradient id="e" gradientTransform="matrix(1.137871 0 0 1 -2.660884 0)" gradientUnits="userSpaceOnUse" x1="21.043484" x2="14.283642" y1="42.83337" y2="6.833368"><stop offset="0" stop-color="#dfdfdf"/><stop offset="1" stop-color="#fff"/></linearGradient><linearGradient id="f" gradientUnits="userSpaceOnUse" x1="26.612417" x2="26.228401" y1="28.083368" y2="42.83337"><stop offset="0" stop-color="#939393"/><stop offset="1" stop-color="#424242"/></linearGradient><linearGradient id="g" gradientUnits="userSpaceOnUse" x1="6" x2="40.984375" y1="7.5625" y2="7.5625"><stop offset="0" stop-color="#a3a4a0"/><stop offset="1" stop-color="#888a85"/></linearGradient><linearGradient id="h" gradientUnits="userSpaceOnUse" x1="43.236958" x2="45.319043" y1="17.376184" y2="22.250591"><stop offset="0" stop-color="#ffd1d1"/><stop offset=".5" stop-color="#ff1d1d"/><stop offset="1" stop-color="#6f0000"/></linearGradient><linearGradient id="i" gradientUnits="userSpaceOnUse" x1="40.330708" x2="42.018208" y1="19.8125" y2="22.625"><stop offset="0" stop-color="#c1c1c1"/><stop offset="1" stop-color="#acacac"/></linearGradient><radialGradient id="j" cx="29.053354" cy="27.640751" gradientTransform="matrix(2.923565 0 0 2.029717 -61.55532 -27.88417)" gradientUnits="userSpaceOnUse" r="3.240854"><stop offset="0" stop-color="#e7e2b8"/><stop offset="1" stop-color="#e7e2b8" stop-opacity="0"/></radialGradient><linearGradient id="k" gradientUnits="userSpaceOnUse" x1="19.893208" x2="19.689047" y1="31.171875" y2="30.828125"><stop offset="0"/><stop offset="1" stop-color="#c9c9c9"/></linearGradient><radialGradient id="l" cx="23.5625" cy="40.4375" gradientTransform="matrix(1 0 0 .348243 0 26.35543)" gradientUnits="userSpaceOnUse" r="19.5625" xlink:href="#b"/><g transform="matrix(.02417561 0 0 .02086758 45.12765 40.1536)"><path d="m-1559.2523-150.69685h1339.6335v478.35718h-1339.6335z" fill="url(#d)" opacity=".402062"/><path d="m-219.61876-150.68038v478.33079c142.874166.90045 345.40022-107.16966 345.40014-239.196175 0-132.026537-159.436816-239.134595-345.40014-239.134615z" fill="url(#c)" opacity=".402062"/><path d="m-1559.2523-150.68038v478.33079c-142.8742.90045-345.4002-107.16966-345.4002-239.196175 0-132.026537 159.4368-239.134595 345.4002-239.134615z" fill="url(#a)" opacity=".402062"/></g><path d="m7.1638699 4.5063726h32.6492521c.762577 0 1.376493.5324515 1.376493 1.1938373 0 0 2.40133 34.1686971 2.40133 34.1686971s.012458 2.347622.012458 2.347622c0 .661386-.613915 1.193837-1.376492 1.193837h-37.47683c-.7625768 0-1.3764923-.532451-1.3764923-1.193837l-.0111714-2.166916 2.4249602-34.3494031c0-.6613858.6139156-1.1938373 1.3764924-1.1938373z" fill="url(#e)" fill-rule="evenodd" stroke="url(#f)"/><path d="m43.125 40.4375a19.5625 6.8125 0 1 1 -39.125 0 19.5625 6.8125 0 1 1 39.125 0z" fill="url(#l)" fill-rule="evenodd" opacity=".315789" transform="matrix(.616613 0 0 .440367 10.61425 13.94266)"/><rect fill="#a4a4a4" fill-rule="evenodd" height="3.071495" rx=".679379" width="39.048077" x="3.977037" y="39.868271"/><path d="m3.9267507 40.442796s.1508618-.53033.704022-.574524h37.5646023c.754309 0 .804596.751301.804596.751301s.023599-1.619573-1.283871-1.619573h-36.4118841c-1.0057457.088388-1.3774652.779883-1.3774652 1.442796z" fill="#fff" fill-rule="evenodd"/><path d="m6.25 5.7343749-.25 4.3906251s.3125-1.1250001 1-1.1250001h33.125c.703125-.015625.734375.3125.859375.828125 0 0-.25-3.875-.25-3.875-.03125-.546875-.21875-.953125-.78125-.953125h-32.890625c-.453125 0-.765625.34375-.8125.734375z" fill="url(#g)" fill-rule="evenodd"/><path d="m7.8126474 5.5404503h31.1323356c.722037 0 1.303317-.1521041 1.303317.4741217 0 0 2.273673 33.008505 2.273673 33.008505s.100183 2.708956.100183 2.708956c0 .626226-.139336.644236-.861374.644236h-36.8987376c-.4126782 0-.419433-.106398-.419433-.511654l-.0105776-2.670438 2.2960469-33.148355c0-.6262258.3625293-.5053717 1.0845667-.5053717z" fill="none" opacity=".438596" stroke="#fff" stroke-width=".999999"/><g fill-rule="evenodd"><rect fill="#fce94f" height="5" rx="1" stroke="#886f00" width="2" x="8.5" y="2.5"/><rect fill="#fce94f" height="5" rx="1" stroke="#886f00" width="2" x="12.5" y="2.5"/><rect fill="#fce94f" height="5" rx="1" stroke="#886f00" width="2" x="16.5" y="2.5"/><rect fill="#fce94f" height="5" rx="1" stroke="#886f00" width="2" x="20.5" y="2.5"/><rect fill="#fce94f" height="5" rx="1" stroke="#886f00" width="2" x="24.5" y="2.5"/><rect fill="#fce94f" height="5" rx="1" stroke="#886f00" width="2" x="28.5" y="2.5"/><rect fill="#fce94f" height="5" rx="1" stroke="#886f00" width="2" x="32.5" y="2.5"/><rect fill="#fce94f" height="5" rx="1" stroke="#886f00" width="2" x="36.5" y="2.5"/><path d="m9 12h29v1h-29z" opacity=".280702"/><path d="m9 14.981792h29v1h-29z" opacity=".280702"/><path d="m9 18.003939h13v1h-13z" opacity=".280702"/><path d="m9 22.985731h29v1h-29z" opacity=".280702"/><path d="m9 26.007877h29v1h-29z" opacity=".280702"/><path d="m9 29.030024h29v1h-29z" opacity=".280702"/><path d="m9 32.05217h8v1h-8z" opacity=".280702"/><path d="m17.34116 32.5 5.625-5.625 20.093749-9.75c3.25-1.25 5.1875 3.375 2.3125 5l-20.031249 9.375-8 1z" fill="#cb9022" stroke="#5c410c"/><path d="m38.330708 20s1.4375.09375 2 1.34375c.579493 1.287761 0 2.65625 0 2.65625l5.03125-2.46875s1.452032-.881367.65625-2.84375c-.784912-1.935577-2.6875-1.15625-2.6875-1.15625l-5 2.46875z" fill="url(#h)"/><path d="m38.330708 20s1.4375.09375 2 1.34375c.579493 1.287761 0 2.65625 0 2.65625l2-1s.827032-1.318867.21875-2.6875c-.625-1.40625-2.21875-1.3125-2.21875-1.3125l-2 1z" fill="url(#i)"/><path d="m18.768208 31.78125 4.5-4.5c1.5.8125 2.28125 2.15625 1.875 3.71875l-6.375.78125z" fill="url(#j)"/><path d="m20.111958 30.375-1.625 1.59375 2.34375-.3125c.21875-.71875-.1875-1.0625-.71875-1.28125z" fill="url(#k)"/><path d="m23.268208 27.25 1.5625 1.25 15.38734-7.31867c-.444432-.856044-1.241767-1.084597-1.903379-1.162262l-15.046461 7.230932z" fill="#fff" fill-opacity=".363636"/><path d="m25.143208 31.0625.1875-.75 15.23109-7.1296s-.11016.613627-.215879.74935l-15.202711 7.13025z" fill-opacity=".363636"/></g></svg>